<svg xmlns="http://www.w3.org/2000/svg"  viewBox="0 0 64 64" width="64px" height="64px" fill="#98c900"><circle cx="32" cy="32" r="23" fill="#98c900"/><path fill="#fff" d="M32,14c2.577,0,4.674-1.957,4.946-4.461	C35.352,9.19,33.699,9,32,9C19.297,9,9,19.297,9,32c0,1.699,0.19,3.352,0.539,4.946C12.044,36.674,14,34.577,14,32	C14,22.075,22.075,14,32,14z" opacity=".3"/><path d="M54.461,27.054C51.956,27.326,50,29.423,50,32c0,9.925-8.075,18-18,18	c-2.577,0-4.674,1.957-4.946,4.461C28.648,54.81,30.301,55,32,55c12.703,0,23-10.297,23-23C55,30.301,54.81,28.648,54.461,27.054z" opacity=".15"/><ellipse cx="32" cy="61" opacity=".3" rx="19" ry="3"/><circle cx="32" cy="32" r="18" fill="#edff9c"/><path fill="none" stroke="#fff" stroke-linecap="round" stroke-linejoin="round" stroke-miterlimit="10" stroke-width="3" d="M15.047,23.427c1.878-3.699,4.932-6.705,8.666-8.522"/><path fill="#98c900" d="M26.727,42.104l-8.43-8.457c-0.397-0.398-0.397-1.044,0-1.442l2.875-2.884	c0.397-0.398,1.041-0.398,1.438,0l6.135,6.154l12.428-14.13c0.371-0.422,1.014-0.463,1.435-0.09l3.049,2.699	c0.421,0.373,0.461,1.017,0.09,1.439L31.17,41.965C30.007,43.288,27.971,43.352,26.727,42.104z"/></svg>