<?xml version="1.0" standalone="no"?>
<!DOCTYPE svg PUBLIC "-//W3C//DTD SVG 20010904//EN"
 "http://www.w3.org/TR/2001/REC-SVG-20010904/DTD/svg10.dtd">
<svg version="1.0" xmlns="http://www.w3.org/2000/svg"
 width="512.000000pt" height="512.000000pt" viewBox="0 0 512.000000 512.000000"
 preserveAspectRatio="xMidYMid meet">
<metadata>
Created by potrace 1.14, written by Peter Selinger 2001-2017
</metadata>
<g transform="translate(0.000000,512.000000) scale(0.100000,-0.100000)"
fill="#000000" stroke="none">
<path d="M2306 4385 c-740 -106 -1342 -644 -1530 -1368 -78 -298 -73 -666 11
-957 209 -723 815 -1238 1566 -1331 141 -17 412 -7 552 21 706 140 1265 666
1441 1357 61 240 71 565 24 797 -147 739 -708 1307 -1444 1462 -153 32 -461
42 -620 19z m-371 -345 c7 0 27 -14 44 -31 26 -25 31 -39 31 -76 0 -39 2 -44
18 -38 436 171 939 118 1323 -138 600 -401 814 -1179 499 -1822 -350 -715
-1203 -1012 -1915 -665 -401 195 -691 566 -780 996 -56 273 -26 599 80 847 6
15 1 17 -35 17 -34 0 -48 6 -76 34 -63 63 -48 119 88 322 98 148 274 324 422
422 150 101 242 146 274 136 8 -2 20 -4 27 -4z"/>
<path d="M3291 3413 c-20 -20 -939 -1063 -988 -1123 -2 -2 -119 112 -261 253
-237 237 -260 257 -292 257 -31 0 -48 -14 -172 -138 -130 -130 -138 -140 -138
-177 0 -38 9 -48 362 -402 261 -262 375 -369 407 -384 65 -31 172 -24 229 13
23 16 302 324 641 710 554 629 601 686 601 719 0 19 -6 42 -12 51 -12 14 -148
137 -241 216 -49 42 -95 43 -136 5z"/>
<path d="M2158 470 c-599 -29 -1042 -111 -1103 -204 -16 -24 -16 -28 0 -52
101 -154 1177 -254 2085 -194 509 34 870 110 926 195 15 23 15 27 0 50 -55 83
-366 151 -876 190 -239 19 -793 27 -1032 15z"/>
</g>
</svg>
